<mxfile host="app.diagrams.net" modified="2024-05-07T22:13:31.884Z" agent="Mozilla/5.0 (X11; Linux x86_64) AppleWebKit/537.36 (KHTML, like Gecko) Chrome/119.0.0.0 Safari/537.36" etag="IxHkZEZt8RZcj2M5ciMY" version="24.3.1" type="device">
  <diagram id="C5RBs43oDa-KdzZeNtuy" name="Page-1">
    <mxGraphModel dx="2261" dy="774" grid="1" gridSize="10" guides="1" tooltips="1" connect="1" arrows="1" fold="1" page="1" pageScale="1" pageWidth="827" pageHeight="1169" math="0" shadow="0">
      <root>
        <mxCell id="WIyWlLk6GJQsqaUBKTNV-0" />
        <mxCell id="WIyWlLk6GJQsqaUBKTNV-1" parent="WIyWlLk6GJQsqaUBKTNV-0" />
        <mxCell id="ydKv2NmJCMXFnChi8v-Q-1" value="&lt;font style=&quot;font-size: 18px;&quot;&gt;Casino online&amp;nbsp;&lt;/font&gt;" style="text;html=1;align=center;verticalAlign=middle;whiteSpace=wrap;rounded=0;" parent="WIyWlLk6GJQsqaUBKTNV-1" vertex="1">
          <mxGeometry x="384" y="60" width="190" height="40" as="geometry" />
        </mxCell>
        <mxCell id="_PhhP8kmJMRNZSBrLcQF-4" style="edgeStyle=orthogonalEdgeStyle;rounded=0;orthogonalLoop=1;jettySize=auto;html=1;exitX=0;exitY=1;exitDx=0;exitDy=0;entryX=0.5;entryY=0;entryDx=0;entryDy=0;" edge="1" parent="WIyWlLk6GJQsqaUBKTNV-1" source="ydKv2NmJCMXFnChi8v-Q-2" target="_PhhP8kmJMRNZSBrLcQF-0">
          <mxGeometry relative="1" as="geometry" />
        </mxCell>
        <mxCell id="_PhhP8kmJMRNZSBrLcQF-5" style="edgeStyle=orthogonalEdgeStyle;rounded=0;orthogonalLoop=1;jettySize=auto;html=1;exitX=0.5;exitY=1;exitDx=0;exitDy=0;" edge="1" parent="WIyWlLk6GJQsqaUBKTNV-1" source="ydKv2NmJCMXFnChi8v-Q-2" target="_PhhP8kmJMRNZSBrLcQF-1">
          <mxGeometry relative="1" as="geometry" />
        </mxCell>
        <mxCell id="_PhhP8kmJMRNZSBrLcQF-6" style="edgeStyle=orthogonalEdgeStyle;rounded=0;orthogonalLoop=1;jettySize=auto;html=1;exitX=1;exitY=1;exitDx=0;exitDy=0;entryX=0.5;entryY=0;entryDx=0;entryDy=0;" edge="1" parent="WIyWlLk6GJQsqaUBKTNV-1" source="ydKv2NmJCMXFnChi8v-Q-2" target="_PhhP8kmJMRNZSBrLcQF-2">
          <mxGeometry relative="1" as="geometry" />
        </mxCell>
        <mxCell id="_PhhP8kmJMRNZSBrLcQF-9" style="edgeStyle=orthogonalEdgeStyle;rounded=0;orthogonalLoop=1;jettySize=auto;html=1;exitX=0.25;exitY=1;exitDx=0;exitDy=0;entryX=0.5;entryY=0;entryDx=0;entryDy=0;" edge="1" parent="WIyWlLk6GJQsqaUBKTNV-1" source="ydKv2NmJCMXFnChi8v-Q-2" target="_PhhP8kmJMRNZSBrLcQF-7">
          <mxGeometry relative="1" as="geometry">
            <Array as="points">
              <mxPoint x="112" y="250" />
              <mxPoint x="99" y="250" />
            </Array>
          </mxGeometry>
        </mxCell>
        <mxCell id="_PhhP8kmJMRNZSBrLcQF-12" style="edgeStyle=orthogonalEdgeStyle;rounded=0;orthogonalLoop=1;jettySize=auto;html=1;exitX=0.75;exitY=1;exitDx=0;exitDy=0;entryX=0.5;entryY=0;entryDx=0;entryDy=0;" edge="1" parent="WIyWlLk6GJQsqaUBKTNV-1" source="ydKv2NmJCMXFnChi8v-Q-2" target="_PhhP8kmJMRNZSBrLcQF-8">
          <mxGeometry relative="1" as="geometry">
            <Array as="points">
              <mxPoint x="187" y="250" />
              <mxPoint x="229" y="250" />
            </Array>
          </mxGeometry>
        </mxCell>
        <mxCell id="_PhhP8kmJMRNZSBrLcQF-13" style="edgeStyle=orthogonalEdgeStyle;rounded=0;orthogonalLoop=1;jettySize=auto;html=1;entryX=0;entryY=0.5;entryDx=0;entryDy=0;" edge="1" parent="WIyWlLk6GJQsqaUBKTNV-1" source="ydKv2NmJCMXFnChi8v-Q-2" target="ydKv2NmJCMXFnChi8v-Q-3">
          <mxGeometry relative="1" as="geometry" />
        </mxCell>
        <mxCell id="ydKv2NmJCMXFnChi8v-Q-2" value="&lt;div&gt;Usuario&lt;/div&gt;" style="rounded=1;whiteSpace=wrap;html=1;" parent="WIyWlLk6GJQsqaUBKTNV-1" vertex="1">
          <mxGeometry x="74" y="155" width="150" height="60" as="geometry" />
        </mxCell>
        <mxCell id="_PhhP8kmJMRNZSBrLcQF-14" style="edgeStyle=orthogonalEdgeStyle;rounded=0;orthogonalLoop=1;jettySize=auto;html=1;entryX=0;entryY=0.5;entryDx=0;entryDy=0;" edge="1" parent="WIyWlLk6GJQsqaUBKTNV-1" source="ydKv2NmJCMXFnChi8v-Q-3" target="ydKv2NmJCMXFnChi8v-Q-4">
          <mxGeometry relative="1" as="geometry" />
        </mxCell>
        <mxCell id="ydKv2NmJCMXFnChi8v-Q-3" value="Se&amp;nbsp;&lt;div&gt;Registran&lt;/div&gt;" style="rhombus;whiteSpace=wrap;html=1;" parent="WIyWlLk6GJQsqaUBKTNV-1" vertex="1">
          <mxGeometry x="438" y="140" width="76" height="90" as="geometry" />
        </mxCell>
        <mxCell id="_PhhP8kmJMRNZSBrLcQF-17" style="edgeStyle=orthogonalEdgeStyle;rounded=0;orthogonalLoop=1;jettySize=auto;html=1;exitX=0.25;exitY=1;exitDx=0;exitDy=0;entryX=0.5;entryY=0;entryDx=0;entryDy=0;" edge="1" parent="WIyWlLk6GJQsqaUBKTNV-1" source="ydKv2NmJCMXFnChi8v-Q-4" target="_PhhP8kmJMRNZSBrLcQF-15">
          <mxGeometry relative="1" as="geometry" />
        </mxCell>
        <mxCell id="_PhhP8kmJMRNZSBrLcQF-18" style="edgeStyle=orthogonalEdgeStyle;rounded=0;orthogonalLoop=1;jettySize=auto;html=1;exitX=0.75;exitY=1;exitDx=0;exitDy=0;entryX=0.5;entryY=0;entryDx=0;entryDy=0;" edge="1" parent="WIyWlLk6GJQsqaUBKTNV-1" source="ydKv2NmJCMXFnChi8v-Q-4" target="_PhhP8kmJMRNZSBrLcQF-16">
          <mxGeometry relative="1" as="geometry" />
        </mxCell>
        <mxCell id="ydKv2NmJCMXFnChi8v-Q-4" value="Login" style="rounded=1;whiteSpace=wrap;html=1;" parent="WIyWlLk6GJQsqaUBKTNV-1" vertex="1">
          <mxGeometry x="664" y="155" width="120" height="60" as="geometry" />
        </mxCell>
        <mxCell id="_PhhP8kmJMRNZSBrLcQF-0" value="Nombre" style="ellipse;whiteSpace=wrap;html=1;" vertex="1" parent="WIyWlLk6GJQsqaUBKTNV-1">
          <mxGeometry x="-16" y="260" width="90" height="50" as="geometry" />
        </mxCell>
        <mxCell id="_PhhP8kmJMRNZSBrLcQF-1" value="&lt;u&gt;DNI&lt;/u&gt;" style="ellipse;whiteSpace=wrap;html=1;" vertex="1" parent="WIyWlLk6GJQsqaUBKTNV-1">
          <mxGeometry x="114" y="260" width="90" height="50" as="geometry" />
        </mxCell>
        <mxCell id="_PhhP8kmJMRNZSBrLcQF-2" value="Edad" style="ellipse;whiteSpace=wrap;html=1;" vertex="1" parent="WIyWlLk6GJQsqaUBKTNV-1">
          <mxGeometry x="254" y="260" width="90" height="50" as="geometry" />
        </mxCell>
        <mxCell id="_PhhP8kmJMRNZSBrLcQF-7" value="Correo&amp;nbsp;&lt;div&gt;Electronico&lt;/div&gt;" style="ellipse;whiteSpace=wrap;html=1;" vertex="1" parent="WIyWlLk6GJQsqaUBKTNV-1">
          <mxGeometry x="54" y="340" width="90" height="50" as="geometry" />
        </mxCell>
        <mxCell id="_PhhP8kmJMRNZSBrLcQF-8" value="Fichas" style="ellipse;whiteSpace=wrap;html=1;" vertex="1" parent="WIyWlLk6GJQsqaUBKTNV-1">
          <mxGeometry x="184" y="340" width="90" height="50" as="geometry" />
        </mxCell>
        <mxCell id="_PhhP8kmJMRNZSBrLcQF-15" value="&lt;u&gt;DNI&lt;/u&gt;" style="ellipse;whiteSpace=wrap;html=1;" vertex="1" parent="WIyWlLk6GJQsqaUBKTNV-1">
          <mxGeometry x="584" y="260" width="90" height="50" as="geometry" />
        </mxCell>
        <mxCell id="_PhhP8kmJMRNZSBrLcQF-16" value="ContraseÃ±a" style="ellipse;whiteSpace=wrap;html=1;" vertex="1" parent="WIyWlLk6GJQsqaUBKTNV-1">
          <mxGeometry x="754" y="260" width="90" height="50" as="geometry" />
        </mxCell>
        <mxCell id="_PhhP8kmJMRNZSBrLcQF-19" value="&lt;font style=&quot;font-size: 14px;&quot;&gt;n:1&lt;/font&gt;" style="text;html=1;align=center;verticalAlign=middle;whiteSpace=wrap;rounded=0;" vertex="1" parent="WIyWlLk6GJQsqaUBKTNV-1">
          <mxGeometry x="304" y="150" width="60" height="30" as="geometry" />
        </mxCell>
        <mxCell id="_PhhP8kmJMRNZSBrLcQF-20" value="Text" style="text;html=1;align=center;verticalAlign=middle;whiteSpace=wrap;rounded=0;" vertex="1" parent="WIyWlLk6GJQsqaUBKTNV-1">
          <mxGeometry x="-1" y="320" width="60" height="30" as="geometry" />
        </mxCell>
        <mxCell id="_PhhP8kmJMRNZSBrLcQF-21" value="integer" style="text;html=1;align=center;verticalAlign=middle;whiteSpace=wrap;rounded=0;" vertex="1" parent="WIyWlLk6GJQsqaUBKTNV-1">
          <mxGeometry x="129" y="320" width="60" height="30" as="geometry" />
        </mxCell>
        <mxCell id="_PhhP8kmJMRNZSBrLcQF-22" value="integer" style="text;html=1;align=center;verticalAlign=middle;whiteSpace=wrap;rounded=0;" vertex="1" parent="WIyWlLk6GJQsqaUBKTNV-1">
          <mxGeometry x="269" y="320" width="60" height="30" as="geometry" />
        </mxCell>
        <mxCell id="_PhhP8kmJMRNZSBrLcQF-23" value="varchar" style="text;html=1;align=center;verticalAlign=middle;whiteSpace=wrap;rounded=0;" vertex="1" parent="WIyWlLk6GJQsqaUBKTNV-1">
          <mxGeometry x="69" y="410" width="60" height="30" as="geometry" />
        </mxCell>
        <mxCell id="_PhhP8kmJMRNZSBrLcQF-24" value="integer" style="text;html=1;align=center;verticalAlign=middle;whiteSpace=wrap;rounded=0;" vertex="1" parent="WIyWlLk6GJQsqaUBKTNV-1">
          <mxGeometry x="199" y="410" width="60" height="30" as="geometry" />
        </mxCell>
        <mxCell id="_PhhP8kmJMRNZSBrLcQF-25" value="integer" style="text;html=1;align=center;verticalAlign=middle;whiteSpace=wrap;rounded=0;" vertex="1" parent="WIyWlLk6GJQsqaUBKTNV-1">
          <mxGeometry x="599" y="330" width="60" height="30" as="geometry" />
        </mxCell>
        <mxCell id="_PhhP8kmJMRNZSBrLcQF-26" value="varchar" style="text;html=1;align=center;verticalAlign=middle;whiteSpace=wrap;rounded=0;" vertex="1" parent="WIyWlLk6GJQsqaUBKTNV-1">
          <mxGeometry x="769" y="330" width="60" height="30" as="geometry" />
        </mxCell>
      </root>
    </mxGraphModel>
  </diagram>
</mxfile>
